<?xml version="1.0" encoding="UTF-8" standalone="no"?>
<!-- Created with Inkscape (http://www.inkscape.org/) -->

<svg
   width="157.92117mm"
   height="33.593071mm"
   viewBox="0 0 157.92117 33.593071"
   version="1.1"
   id="svg1"
   xml:space="preserve"
   inkscape:version="1.4.2 (f4327f4, 2025-05-13)"
   sodipodi:docname="tmhub_testes.svg"
   xmlns:inkscape="http://www.inkscape.org/namespaces/inkscape"
   xmlns:sodipodi="http://sodipodi.sourceforge.net/DTD/sodipodi-0.dtd"
   xmlns:xlink="http://www.w3.org/1999/xlink"
   xmlns="http://www.w3.org/2000/svg"
   xmlns:svg="http://www.w3.org/2000/svg"><sodipodi:namedview
     id="namedview1"
     pagecolor="#505050"
     bordercolor="#eeeeee"
     borderopacity="1"
     inkscape:showpageshadow="0"
     inkscape:pageopacity="0"
     inkscape:pagecheckerboard="0"
     inkscape:deskcolor="#505050"
     inkscape:document-units="mm"
     inkscape:zoom="0.27638802"
     inkscape:cx="1687.8445"
     inkscape:cy="1434.5774"
     inkscape:window-width="1902"
     inkscape:window-height="973"
     inkscape:window-x="-8"
     inkscape:window-y="0"
     inkscape:window-maximized="0"
     inkscape:current-layer="layer1"><inkscape:page
       x="0"
       y="0"
       width="157.92117"
       height="33.593071"
       id="page1"
       margin="0"
       bleed="0" /></sodipodi:namedview><defs
     id="defs1"><linearGradient
       id="linearGradient1"
       inkscape:collect="always"><stop
         style="stop-color:#01703e;stop-opacity:1;"
         offset="0"
         id="stop1" /><stop
         style="stop-color:#03e17b;stop-opacity:1;"
         offset="1"
         id="stop2" /></linearGradient><style
       id="style1">
      .wordmark {
        font-family: 'Arial', 'Helvetica Neue', sans-serif;
        font-weight: 800;
        letter-spacing: 1.5px;
      }
      .tagline {
        font-family: 'Arial', 'Helvetica Neue', sans-serif;
        font-weight: 600;
        letter-spacing: 4px;
      }
    </style><style
       id="style1-5">
      .wordmark {
        font-family: 'Arial', 'Helvetica Neue', sans-serif;
        font-weight: 800;
        letter-spacing: 1.5px;
      }
      .tagline {
        font-family: 'Arial', 'Helvetica Neue', sans-serif;
        font-weight: 600;
        letter-spacing: 4px;
      }
    </style><linearGradient
       inkscape:collect="always"
       xlink:href="#linearGradient1"
       id="linearGradient2"
       x1="22.611984"
       y1="53.44952"
       x2="228.40433"
       y2="53.44952"
       gradientUnits="userSpaceOnUse"
       gradientTransform="matrix(0.7673806,0,0,0.7673806,51.517522,67.319642)" /><linearGradient
       inkscape:collect="always"
       xlink:href="#linearGradient1"
       id="linearGradient433"
       gradientUnits="userSpaceOnUse"
       gradientTransform="matrix(0.7673806,0,0,0.7673806,573.9883,297.83274)"
       x1="22.611984"
       y1="53.44952"
       x2="228.40433"
       y2="53.44952" /></defs><g
     inkscape:label="Camada 1"
     inkscape:groupmode="layer"
     id="layer1"
     transform="translate(-592.01019,-311.20221)"><g
       id="g421"
       transform="translate(0.66988055,-1.0795128)"><path
         style="fill:url(#linearGradient2);stroke-width:1.25445"
         d="m 176.37755,114.73246 c -3.43499,-1.09901 -6.48585,-3.81579 -7.91619,-7.04932 -1.12507,-2.54341 -1.36947,-5.59354 -1.27289,-15.886724 l 0.0918,-9.791302 2.73826,-0.09634 2.73823,-0.09647 v 9.925365 c 0,5.458952 0.15041,10.729881 0.33427,11.713191 0.46334,2.47825 1.76809,4.24162 3.98259,5.38245 1.59358,0.82096 2.08992,0.91951 3.93749,0.78183 3.2363,-0.24117 5.80292,-2.35525 6.67619,-5.49911 0.19102,-0.68766 0.33432,-5.703465 0.33539,-11.73879 l 0.002,-10.538079 h 2.82122 2.82122 v 10.604716 c 0,6.587749 -0.14136,11.270953 -0.37319,12.363573 -1.63453,7.70358 -9.47731,12.30504 -16.91625,9.92499 z M 68.869583,98.406901 c 0,-13.150459 0.08668,-16.594353 0.414885,-16.485642 0.279029,0.09245 0.446286,1.079609 0.510777,3.014833 l 0.09584,2.87742 h 5.463556 5.463568 v 13.608218 13.60823 h -5.974345 -5.974345 z m 17.923034,3.014829 V 87.813512 h 5.463555 5.463568 l 0.09584,-2.904203 c 0.09559,-2.894518 0.09898,-2.904541 1.008645,-3.009225 l 0.912753,-0.104999 v 16.617461 16.617444 h -6.472211 -6.472201 z m 18.586843,1.8255 c 0,-6.480506 0.0607,-11.782738 0.13494,-11.782738 0.0743,0 2.62708,4.032385 5.67304,8.960848 3.04596,4.92846 5.64472,9.02672 5.775,9.10724 0.13029,0.0805 2.23978,-3.09304 4.68776,-7.05236 2.44798,-3.959327 5.01465,-8.094928 5.7037,-9.190232 l 1.25282,-1.991448 0.004,11.86572 0.004,11.8657 h -11.61693 -11.61678 z m 28.876,-4.812669 V 81.839154 h 2.98717 2.98718 v 6.975878 6.975864 l 8.21472,-0.08881 8.21473,-0.08882 0.0897,-6.887099 0.0897,-6.887099 h 2.81448 2.81448 v 16.595406 16.595406 h -2.82122 -2.82121 v -6.80412 -6.80411 h -8.2977 -8.29771 v 6.80411 6.80412 h -2.98718 -2.98717 z m 64.39016,-0.03525 v -16.63072 l 8.87854,0.122561 c 8.58297,0.118546 8.93294,0.149192 10.5125,0.922438 2.09559,1.025869 4.05494,2.991827 4.93376,4.950396 0.9532,2.124333 0.95031,5.624214 -0.006,7.7321 l -0.69999,1.542303 1.27353,1.023436 c 1.7039,1.369288 3.02164,4.131245 3.2253,6.760175 0.32019,4.13286 -2.18768,8.07228 -6.0616,9.5217 -1.70674,0.63857 -2.53665,0.68625 -11.94493,0.68625 h -10.11088 z m 20.51532,10.539209 c 1.84999,-1.02659 2.56435,-3.57649 1.55094,-5.53618 -0.9408,-1.81931 -1.72274,-1.98058 -9.60323,-1.98058 h -7.15251 v 3.98288 3.9829 l 7.21901,-0.0113 c 5.23224,-0.009 7.43003,-0.12886 7.98579,-0.43726 z m -3.5995,-13.592816 c 3.48686,-1.200954 3.38151,-6.273997 -0.15487,-7.457564 -0.85941,-0.287621 -2.87005,-0.393974 -6.27455,-0.331903 l -5.00992,0.09132 -0.0948,3.629654 c -0.0522,1.996316 -0.0194,3.825952 0.0725,4.065867 0.22209,0.578743 9.78255,0.580913 11.46162,0.0025 z m -103.70977,-4.94282 c -2.73823,-4.413903 -5.02841,-8.146422 -5.08926,-8.294486 -0.0608,-0.148063 4.53194,-0.269218 10.20618,-0.269218 5.67424,0 10.3168,0.09596 10.3168,0.213358 0,0.364017 -10.01679,16.382249 -10.24229,16.378837 -0.11704,-0.0012 -2.45318,-3.614588 -5.19143,-8.028491 z"
         id="path1"
         sodipodi:nodetypes="csccccscsssccccssccccccccccccccccccccccccccsssssccccccccccccccccccccccccccccccccccssccsssscccsscccccccsscscccsssscs" /><path
         style="fill:url(#linearGradient433);stroke-width:1.25445"
         d="m 698.84833,345.24556 c -3.43499,-1.09901 -6.48585,-3.81579 -7.91619,-7.04932 -1.12507,-2.54341 -1.36947,-5.59354 -1.27289,-15.88672 l 0.0918,-9.79131 2.73826,-0.0963 2.73823,-0.0965 v 9.92537 c 0,5.45895 0.15041,10.72988 0.33427,11.71319 0.46334,2.47825 1.76809,4.24162 3.98259,5.38245 1.59358,0.82096 2.08992,0.91951 3.93749,0.78183 3.2363,-0.24117 5.80292,-2.35525 6.67619,-5.49911 0.19102,-0.68766 0.33432,-5.70346 0.33539,-11.73879 l 0.002,-10.53808 h 2.82122 2.82122 v 10.60472 c 0,6.58775 -0.14136,11.27095 -0.37319,12.36357 -1.63453,7.70358 -9.47731,12.30504 -16.91625,9.92499 z M 591.34036,328.92 c 0,-13.15046 0.0867,-16.59435 0.41489,-16.48564 0.27903,0.0924 0.44628,1.07961 0.51078,3.01483 l 0.0958,2.87742 h 5.46356 5.46357 v 13.60822 13.60823 h -5.97435 -5.97434 z m 17.92304,3.01483 v -13.60822 h 5.46355 5.46357 l 0.0958,-2.9042 c 0.0956,-2.89452 0.099,-2.90454 1.00864,-3.00923 l 0.91276,-0.105 v 16.61747 16.61744 h -6.47221 -6.4722 z m 18.58684,1.8255 c 0,-6.48051 0.0607,-11.78274 0.13494,-11.78274 0.0743,0 2.62708,4.03239 5.67304,8.96085 3.04596,4.92846 5.64472,9.02672 5.775,9.10724 0.13029,0.0805 2.23978,-3.09304 4.68776,-7.05236 2.44798,-3.95933 5.01465,-8.09493 5.7037,-9.19023 l 1.25282,-1.99145 0.004,11.86572 0.004,11.8657 h -11.61693 -11.61678 z m 28.876,-4.81267 v -16.59541 h 2.98717 2.98718 v 6.97588 6.97587 l 8.21472,-0.0888 8.21473,-0.0888 0.0897,-6.8871 0.0897,-6.8871 h 2.81448 2.81448 v 16.5954 16.59541 h -2.82122 -2.82121 v -6.80412 -6.80411 h -8.2977 -8.29771 v 6.80411 6.80412 h -2.98718 -2.98717 z m 64.39016,-0.0352 v -16.63072 l 8.87854,0.12256 c 8.58297,0.11855 8.93294,0.14919 10.5125,0.92244 2.09559,1.02587 4.05494,2.99183 4.93376,4.9504 0.9532,2.12433 0.95031,5.62421 -0.006,7.7321 l -0.69999,1.5423 1.27353,1.02343 c 1.7039,1.36929 3.02164,4.13125 3.2253,6.76018 0.32019,4.13286 -2.18768,8.07228 -6.0616,9.5217 -1.70674,0.63857 -2.53665,0.68625 -11.94493,0.68625 h -10.11088 z m 20.51532,10.53921 c 1.84999,-1.02659 2.56435,-3.57649 1.55094,-5.53618 -0.9408,-1.81931 -1.72274,-1.98058 -9.60323,-1.98058 h -7.15251 v 3.98288 3.9829 l 7.21901,-0.0113 c 5.23224,-0.009 7.43003,-0.12886 7.98579,-0.43726 z m -3.5995,-13.59282 c 3.48686,-1.20095 3.38151,-6.27399 -0.15487,-7.45756 -0.85941,-0.28762 -2.87005,-0.39397 -6.27455,-0.3319 l -5.00992,0.0913 -0.0948,3.62965 c -0.0522,1.99632 -0.0194,3.82595 0.0725,4.06587 0.22209,0.57874 9.78255,0.58091 11.46162,0.002 z m -103.70977,-4.94282 c -2.73823,-4.4139 -5.02841,-8.14642 -5.08926,-8.29448 -0.0608,-0.14806 4.53194,-0.26922 10.20618,-0.26922 5.67424,0 10.3168,0.096 10.3168,0.21336 0,0.36402 -10.01679,16.38225 -10.24229,16.37884 -0.11704,-10e-4 -2.45318,-3.61459 -5.19143,-8.0285 z"
         id="path1-4"
         sodipodi:nodetypes="csccccscsssccccssccccccccccccccccccccccccccsssssccccccccccccccccccccccccccccccccccssccsssscccsscccccccsscscccsssscs" /><text
         xml:space="preserve"
         style="font-weight:bold;font-size:11.5594px;font-family:Arial, 'Helvetica Neue', sans-serif;-inkscape-font-specification:'Arial, Helvetica Neue, sans-serif Bold';text-align:start;letter-spacing:1.95328px;writing-mode:lr-tb;direction:ltr;text-anchor:start;fill:#333333;fill-opacity:1;stroke-width:0.963278"
         x="77.325287"
         y="130.24933"
         id="text396-1"><tspan
           sodipodi:role="line"
           id="tspan395-8"
           style="letter-spacing:1.95328px;fill:#333333;fill-opacity:1;stroke-width:0.963278"
           x="77.325287"
           y="130.24933">PAINEL EXECUTIVO</tspan></text></g></g></svg>
